<svg width="1440" height="900" viewBox="0 0 1440 900" fill="none" xmlns="http://www.w3.org/2000/svg">
  <rect width="1440" height="900" fill="#0A0F10"/>
  <rect x="24" y="24" width="1392" height="852" rx="28" fill="#10191C" stroke="#4E6367" stroke-width="2"/>
  <rect x="48" y="48" width="1344" height="54" rx="18" fill="#152227" stroke="#627B80" stroke-width="2"/>
  <text x="78" y="82" fill="#D7E0D8" font-family="monospace" font-size="28" font-weight="700">SEYTHM</text>
  <text x="240" y="82" fill="#9CB2AB" font-family="monospace" font-size="24">Ready / Playing</text>
  <text x="1170" y="82" fill="#D7E0D8" font-family="monospace" font-size="22">Demo Basic</text>

  <rect x="82" y="138" width="246" height="620" rx="22" fill="#132025" stroke="#5B747A" stroke-width="2"/>
  <text x="108" y="182" fill="#D7E0D8" font-family="monospace" font-size="23" font-weight="700">Session</text>
  <text x="108" y="224" fill="#8FA59F" font-family="monospace" font-size="20">Mode         Ready</text>
  <text x="108" y="264" fill="#8FA59F" font-family="monospace" font-size="20">Keys         6K</text>
  <text x="108" y="304" fill="#8FA59F" font-family="monospace" font-size="20">Latency      armed</text>
  <text x="108" y="344" fill="#8FA59F" font-family="monospace" font-size="20">Autoplay     off</text>
  <text x="108" y="384" fill="#8FA59F" font-family="monospace" font-size="20">Music vol    80</text>
  <text x="108" y="424" fill="#8FA59F" font-family="monospace" font-size="20">Hit vol      70</text>
  <rect x="108" y="470" width="192" height="76" rx="16" fill="#1B2B31" stroke="#70888E" stroke-width="2"/>
  <text x="140" y="515" fill="#E4ECE5" font-family="monospace" font-size="24" font-weight="700">READY 0.5s</text>

  <rect x="380" y="138" width="680" height="620" rx="22" fill="#132025" stroke="#5B747A" stroke-width="2"/>
  <rect x="522" y="170" width="396" height="556" rx="22" fill="#0E171A" stroke="#6A848A" stroke-width="2"/>
  <line x1="588" y1="196" x2="588" y2="700" stroke="#365058" stroke-width="2"/>
  <line x1="654" y1="196" x2="654" y2="700" stroke="#365058" stroke-width="2"/>
  <line x1="720" y1="196" x2="720" y2="700" stroke="#365058" stroke-width="2"/>
  <line x1="786" y1="196" x2="786" y2="700" stroke="#365058" stroke-width="2"/>
  <line x1="852" y1="196" x2="852" y2="700" stroke="#365058" stroke-width="2"/>
  <rect x="543" y="250" width="34" height="34" rx="8" fill="#BFD1C9"/>
  <rect x="675" y="334" width="34" height="86" rx="8" fill="#BFD1C9"/>
  <rect x="807" y="290" width="34" height="34" rx="8" fill="#BFD1C9"/>
  <rect x="873" y="430" width="34" height="34" rx="8" fill="#BFD1C9"/>
  <rect x="534" y="654" width="372" height="16" rx="8" fill="#DDE6DF"/>

  <rect x="1094" y="138" width="298" height="620" rx="22" fill="#132025" stroke="#5B747A" stroke-width="2"/>
  <text x="1120" y="182" fill="#D7E0D8" font-family="monospace" font-size="23" font-weight="700">Performance</text>
  <text x="1120" y="228" fill="#E4ECE5" font-family="monospace" font-size="40" font-weight="700">982,440</text>
  <text x="1120" y="272" fill="#8FA59F" font-family="monospace" font-size="20">Accuracy   98.42%</text>
  <text x="1120" y="312" fill="#8FA59F" font-family="monospace" font-size="20">Combo      128</text>
  <text x="1120" y="352" fill="#8FA59F" font-family="monospace" font-size="20">Perfect    134</text>
  <text x="1120" y="392" fill="#8FA59F" font-family="monospace" font-size="20">Great      11</text>
  <text x="1120" y="432" fill="#8FA59F" font-family="monospace" font-size="20">Good       2</text>
  <text x="1120" y="472" fill="#8FA59F" font-family="monospace" font-size="20">Miss       0</text>
  <rect x="1120" y="530" width="220" height="70" rx="16" fill="#1B2B31" stroke="#70888E" stroke-width="2"/>
  <text x="1165" y="574" fill="#E4ECE5" font-family="monospace" font-size="30" font-weight="700">PERFECT</text>

  <rect x="48" y="818" width="1344" height="40" rx="14" fill="#162328" stroke="#637C82" stroke-width="2"/>
  <text x="80" y="845" fill="#C7D9D1" font-family="monospace" font-size="19">Hit S D F J K L   Pause Space   Restart R   Theme T   Return B</text>
</svg>
